<mxfile host="app.diagrams.net" modified="2021-11-30T10:50:36.583Z" agent="5.0 (Windows)" etag="qgazPfle_zS027AAkqoc" version="15.8.6" type="github">
  <diagram id="R2lEEEUBdFMjLlhIrx00" name="Page-1">
    <mxGraphModel dx="766" dy="440" grid="1" gridSize="10" guides="1" tooltips="1" connect="1" arrows="1" fold="1" page="1" pageScale="1" pageWidth="850" pageHeight="1100" math="0" shadow="0" extFonts="Permanent Marker^https://fonts.googleapis.com/css?family=Permanent+Marker">
      <root>
        <mxCell id="0" />
        <mxCell id="1" parent="0" />
        <mxCell id="Phtv0TZWdsEABk7-FIin-1" value="user" style="rounded=1;arcSize=10;whiteSpace=wrap;html=1;align=center;fillColor=#f5f5f5;fontColor=#333333;strokeColor=#666666;" vertex="1" parent="1">
          <mxGeometry x="120" y="190" width="100" height="40" as="geometry" />
        </mxCell>
        <mxCell id="Phtv0TZWdsEABk7-FIin-5" value="&lt;u&gt;&lt;b&gt;ID&lt;/b&gt;&lt;/u&gt;" style="ellipse;whiteSpace=wrap;html=1;align=center;" vertex="1" parent="1">
          <mxGeometry x="20" y="130" width="80" height="30" as="geometry" />
        </mxCell>
        <mxCell id="Phtv0TZWdsEABk7-FIin-7" value="password" style="ellipse;whiteSpace=wrap;html=1;align=center;" vertex="1" parent="1">
          <mxGeometry x="230" y="160" width="80" height="30" as="geometry" />
        </mxCell>
        <mxCell id="Phtv0TZWdsEABk7-FIin-8" value="email" style="ellipse;whiteSpace=wrap;html=1;align=center;" vertex="1" parent="1">
          <mxGeometry x="200" y="120" width="80" height="30" as="geometry" />
        </mxCell>
        <mxCell id="Phtv0TZWdsEABk7-FIin-9" value="username" style="ellipse;whiteSpace=wrap;html=1;align=center;" vertex="1" parent="1">
          <mxGeometry x="110" y="120" width="80" height="30" as="geometry" />
        </mxCell>
        <mxCell id="Phtv0TZWdsEABk7-FIin-11" value="" style="endArrow=none;html=1;rounded=0;exitX=0.5;exitY=1;exitDx=0;exitDy=0;entryX=0;entryY=0;entryDx=0;entryDy=0;" edge="1" parent="1" source="Phtv0TZWdsEABk7-FIin-5" target="Phtv0TZWdsEABk7-FIin-1">
          <mxGeometry relative="1" as="geometry">
            <mxPoint x="190" y="230" as="sourcePoint" />
            <mxPoint x="350" y="230" as="targetPoint" />
          </mxGeometry>
        </mxCell>
        <mxCell id="Phtv0TZWdsEABk7-FIin-13" value="" style="endArrow=none;html=1;rounded=0;exitX=0.5;exitY=1;exitDx=0;exitDy=0;entryX=0.25;entryY=0;entryDx=0;entryDy=0;" edge="1" parent="1" source="Phtv0TZWdsEABk7-FIin-9" target="Phtv0TZWdsEABk7-FIin-1">
          <mxGeometry relative="1" as="geometry">
            <mxPoint x="170" y="260" as="sourcePoint" />
            <mxPoint x="330" y="260" as="targetPoint" />
          </mxGeometry>
        </mxCell>
        <mxCell id="Phtv0TZWdsEABk7-FIin-14" value="" style="endArrow=none;html=1;rounded=0;entryX=0.425;entryY=1.067;entryDx=0;entryDy=0;entryPerimeter=0;exitX=0.65;exitY=-0.025;exitDx=0;exitDy=0;exitPerimeter=0;" edge="1" parent="1" source="Phtv0TZWdsEABk7-FIin-1" target="Phtv0TZWdsEABk7-FIin-8">
          <mxGeometry relative="1" as="geometry">
            <mxPoint x="170" y="130" as="sourcePoint" />
            <mxPoint x="350" y="230" as="targetPoint" />
          </mxGeometry>
        </mxCell>
        <mxCell id="Phtv0TZWdsEABk7-FIin-15" value="" style="endArrow=none;html=1;rounded=0;exitX=1;exitY=0.5;exitDx=0;exitDy=0;entryX=0.5;entryY=1;entryDx=0;entryDy=0;" edge="1" parent="1" source="Phtv0TZWdsEABk7-FIin-1" target="Phtv0TZWdsEABk7-FIin-7">
          <mxGeometry relative="1" as="geometry">
            <mxPoint x="190" y="230" as="sourcePoint" />
            <mxPoint x="350" y="230" as="targetPoint" />
          </mxGeometry>
        </mxCell>
        <mxCell id="Phtv0TZWdsEABk7-FIin-16" value="api_token" style="ellipse;whiteSpace=wrap;html=1;align=center;" vertex="1" parent="1">
          <mxGeometry x="20" y="220" width="80" height="30" as="geometry" />
        </mxCell>
        <mxCell id="Phtv0TZWdsEABk7-FIin-17" value="" style="endArrow=none;html=1;rounded=0;exitX=1;exitY=0.5;exitDx=0;exitDy=0;entryX=0;entryY=0.5;entryDx=0;entryDy=0;" edge="1" parent="1" source="Phtv0TZWdsEABk7-FIin-16" target="Phtv0TZWdsEABk7-FIin-1">
          <mxGeometry relative="1" as="geometry">
            <mxPoint x="190" y="210" as="sourcePoint" />
            <mxPoint x="350" y="210" as="targetPoint" />
          </mxGeometry>
        </mxCell>
        <mxCell id="Phtv0TZWdsEABk7-FIin-18" value="post" style="rounded=1;arcSize=10;whiteSpace=wrap;html=1;align=center;fillColor=#f5f5f5;fontColor=#333333;strokeColor=#666666;" vertex="1" parent="1">
          <mxGeometry x="580" y="190" width="100" height="40" as="geometry" />
        </mxCell>
        <mxCell id="Phtv0TZWdsEABk7-FIin-19" value="&lt;u&gt;&lt;b&gt;ID&lt;/b&gt;&lt;/u&gt;" style="ellipse;whiteSpace=wrap;html=1;align=center;" vertex="1" parent="1">
          <mxGeometry x="480" y="130" width="80" height="30" as="geometry" />
        </mxCell>
        <mxCell id="Phtv0TZWdsEABk7-FIin-21" value="content" style="ellipse;whiteSpace=wrap;html=1;align=center;" vertex="1" parent="1">
          <mxGeometry x="660" y="120" width="80" height="30" as="geometry" />
        </mxCell>
        <mxCell id="Phtv0TZWdsEABk7-FIin-22" value="caption" style="ellipse;whiteSpace=wrap;html=1;align=center;" vertex="1" parent="1">
          <mxGeometry x="570" y="120" width="80" height="30" as="geometry" />
        </mxCell>
        <mxCell id="Phtv0TZWdsEABk7-FIin-23" value="" style="endArrow=none;html=1;rounded=0;exitX=0.5;exitY=1;exitDx=0;exitDy=0;entryX=0;entryY=0;entryDx=0;entryDy=0;" edge="1" parent="1" source="Phtv0TZWdsEABk7-FIin-19" target="Phtv0TZWdsEABk7-FIin-18">
          <mxGeometry relative="1" as="geometry">
            <mxPoint x="650" y="230" as="sourcePoint" />
            <mxPoint x="810" y="230" as="targetPoint" />
          </mxGeometry>
        </mxCell>
        <mxCell id="Phtv0TZWdsEABk7-FIin-24" value="" style="endArrow=none;html=1;rounded=0;exitX=0.5;exitY=1;exitDx=0;exitDy=0;entryX=0.41;entryY=-0.025;entryDx=0;entryDy=0;entryPerimeter=0;" edge="1" parent="1" source="Phtv0TZWdsEABk7-FIin-22" target="Phtv0TZWdsEABk7-FIin-18">
          <mxGeometry relative="1" as="geometry">
            <mxPoint x="630" y="260" as="sourcePoint" />
            <mxPoint x="790" y="260" as="targetPoint" />
          </mxGeometry>
        </mxCell>
        <mxCell id="Phtv0TZWdsEABk7-FIin-25" value="" style="endArrow=none;html=1;rounded=0;entryX=0.425;entryY=1.067;entryDx=0;entryDy=0;entryPerimeter=0;exitX=0.65;exitY=-0.025;exitDx=0;exitDy=0;exitPerimeter=0;" edge="1" parent="1" source="Phtv0TZWdsEABk7-FIin-18" target="Phtv0TZWdsEABk7-FIin-21">
          <mxGeometry relative="1" as="geometry">
            <mxPoint x="630" y="130" as="sourcePoint" />
            <mxPoint x="810" y="230" as="targetPoint" />
          </mxGeometry>
        </mxCell>
        <mxCell id="Phtv0TZWdsEABk7-FIin-29" value="create" style="shape=rhombus;perimeter=rhombusPerimeter;whiteSpace=wrap;html=1;align=center;" vertex="1" parent="1">
          <mxGeometry x="350" y="190" width="90" height="40" as="geometry" />
        </mxCell>
        <mxCell id="Phtv0TZWdsEABk7-FIin-30" value="" style="endArrow=none;html=1;rounded=0;exitX=1;exitY=0.5;exitDx=0;exitDy=0;entryX=0;entryY=0.5;entryDx=0;entryDy=0;" edge="1" parent="1" source="Phtv0TZWdsEABk7-FIin-1" target="Phtv0TZWdsEABk7-FIin-29">
          <mxGeometry relative="1" as="geometry">
            <mxPoint x="290" y="210" as="sourcePoint" />
            <mxPoint x="450" y="210" as="targetPoint" />
          </mxGeometry>
        </mxCell>
        <mxCell id="Phtv0TZWdsEABk7-FIin-32" value="1" style="text;html=1;align=center;verticalAlign=middle;resizable=0;points=[];autosize=1;strokeColor=none;fillColor=none;" vertex="1" parent="1">
          <mxGeometry x="330" y="190" width="20" height="20" as="geometry" />
        </mxCell>
        <mxCell id="Phtv0TZWdsEABk7-FIin-33" value="8" style="text;html=1;align=center;verticalAlign=middle;resizable=0;points=[];autosize=1;strokeColor=none;fillColor=none;rotation=91;" vertex="1" parent="1">
          <mxGeometry x="430" y="190" width="20" height="20" as="geometry" />
        </mxCell>
        <mxCell id="Phtv0TZWdsEABk7-FIin-34" value="add" style="shape=rhombus;perimeter=rhombusPerimeter;whiteSpace=wrap;html=1;align=center;" vertex="1" parent="1">
          <mxGeometry x="125" y="290" width="90" height="40" as="geometry" />
        </mxCell>
        <mxCell id="Phtv0TZWdsEABk7-FIin-36" value="8" style="text;html=1;align=center;verticalAlign=middle;resizable=0;points=[];autosize=1;strokeColor=none;fillColor=none;rotation=91;" vertex="1" parent="1">
          <mxGeometry x="195" y="280" width="20" height="20" as="geometry" />
        </mxCell>
        <mxCell id="Phtv0TZWdsEABk7-FIin-37" value="8" style="text;html=1;align=center;verticalAlign=middle;resizable=0;points=[];autosize=1;strokeColor=none;fillColor=none;rotation=91;" vertex="1" parent="1">
          <mxGeometry x="125" y="280" width="20" height="20" as="geometry" />
        </mxCell>
        <mxCell id="Phtv0TZWdsEABk7-FIin-38" value="" style="endArrow=none;html=1;rounded=0;exitX=0;exitY=0.5;exitDx=0;exitDy=0;entryX=0;entryY=0.75;entryDx=0;entryDy=0;" edge="1" parent="1" source="Phtv0TZWdsEABk7-FIin-34" target="Phtv0TZWdsEABk7-FIin-1">
          <mxGeometry relative="1" as="geometry">
            <mxPoint x="290" y="210" as="sourcePoint" />
            <mxPoint x="150" y="280" as="targetPoint" />
          </mxGeometry>
        </mxCell>
        <mxCell id="Phtv0TZWdsEABk7-FIin-39" value="" style="endArrow=none;html=1;rounded=0;entryX=1;entryY=0.75;entryDx=0;entryDy=0;exitX=1;exitY=0.5;exitDx=0;exitDy=0;" edge="1" parent="1" source="Phtv0TZWdsEABk7-FIin-34" target="Phtv0TZWdsEABk7-FIin-1">
          <mxGeometry relative="1" as="geometry">
            <mxPoint x="260" y="340" as="sourcePoint" />
            <mxPoint x="450" y="210" as="targetPoint" />
          </mxGeometry>
        </mxCell>
        <mxCell id="Phtv0TZWdsEABk7-FIin-41" style="edgeStyle=orthogonalEdgeStyle;rounded=0;orthogonalLoop=1;jettySize=auto;html=1;" edge="1" parent="1" source="Phtv0TZWdsEABk7-FIin-40" target="Phtv0TZWdsEABk7-FIin-29">
          <mxGeometry relative="1" as="geometry" />
        </mxCell>
        <mxCell id="Phtv0TZWdsEABk7-FIin-40" value="&lt;div style=&quot;font-size: 16px&quot;&gt;&lt;font style=&quot;font-size: 16px&quot;&gt;حاسس ان دي المفروض تبقي&lt;/font&gt;&lt;/div&gt;&lt;div style=&quot;font-size: 16px&quot;&gt;&lt;font style=&quot;font-size: 16px&quot;&gt;identifying relationship&lt;/font&gt;&lt;br&gt;&lt;/div&gt;" style="text;html=1;align=center;verticalAlign=middle;resizable=0;points=[];autosize=1;strokeColor=none;fillColor=none;" vertex="1" parent="1">
          <mxGeometry x="315" y="115" width="170" height="30" as="geometry" />
        </mxCell>
        <mxCell id="Phtv0TZWdsEABk7-FIin-63" value="create" style="shape=rhombus;perimeter=rhombusPerimeter;whiteSpace=wrap;html=1;align=center;" vertex="1" parent="1">
          <mxGeometry x="355" y="350" width="90" height="40" as="geometry" />
        </mxCell>
        <mxCell id="Phtv0TZWdsEABk7-FIin-65" value="8" style="text;html=1;align=center;verticalAlign=middle;resizable=0;points=[];autosize=1;strokeColor=none;fillColor=none;rotation=91;" vertex="1" parent="1">
          <mxGeometry x="430" y="350" width="20" height="20" as="geometry" />
        </mxCell>
        <mxCell id="Phtv0TZWdsEABk7-FIin-66" value="1" style="text;html=1;align=center;verticalAlign=middle;resizable=0;points=[];autosize=1;strokeColor=none;fillColor=none;rotation=0;" vertex="1" parent="1">
          <mxGeometry x="350" y="350" width="20" height="20" as="geometry" />
        </mxCell>
        <mxCell id="Phtv0TZWdsEABk7-FIin-67" value="likes" style="shape=rhombus;perimeter=rhombusPerimeter;whiteSpace=wrap;html=1;align=center;" vertex="1" parent="1">
          <mxGeometry x="350" y="270" width="90" height="40" as="geometry" />
        </mxCell>
        <mxCell id="Phtv0TZWdsEABk7-FIin-68" value="8" style="text;html=1;align=center;verticalAlign=middle;resizable=0;points=[];autosize=1;strokeColor=none;fillColor=none;rotation=91;" vertex="1" parent="1">
          <mxGeometry x="425" y="270" width="20" height="20" as="geometry" />
        </mxCell>
        <mxCell id="Phtv0TZWdsEABk7-FIin-69" value="8" style="text;html=1;align=center;verticalAlign=middle;resizable=0;points=[];autosize=1;strokeColor=none;fillColor=none;rotation=91;" vertex="1" parent="1">
          <mxGeometry x="345" y="270" width="20" height="20" as="geometry" />
        </mxCell>
        <mxCell id="Phtv0TZWdsEABk7-FIin-70" value="" style="endArrow=none;html=1;rounded=0;fontSize=16;exitX=1;exitY=0.5;exitDx=0;exitDy=0;entryX=0;entryY=0.5;entryDx=0;entryDy=0;" edge="1" parent="1" source="Phtv0TZWdsEABk7-FIin-1" target="Phtv0TZWdsEABk7-FIin-67">
          <mxGeometry relative="1" as="geometry">
            <mxPoint x="290" y="210" as="sourcePoint" />
            <mxPoint x="270" y="320" as="targetPoint" />
          </mxGeometry>
        </mxCell>
        <mxCell id="Phtv0TZWdsEABk7-FIin-71" value="" style="endArrow=none;html=1;rounded=0;fontSize=16;exitX=1;exitY=0.5;exitDx=0;exitDy=0;entryX=0;entryY=0.5;entryDx=0;entryDy=0;" edge="1" parent="1" source="Phtv0TZWdsEABk7-FIin-1" target="Phtv0TZWdsEABk7-FIin-63">
          <mxGeometry relative="1" as="geometry">
            <mxPoint x="290" y="210" as="sourcePoint" />
            <mxPoint x="450" y="210" as="targetPoint" />
          </mxGeometry>
        </mxCell>
        <mxCell id="Phtv0TZWdsEABk7-FIin-73" value="" style="endArrow=none;html=1;rounded=0;fontSize=16;exitX=1;exitY=0.5;exitDx=0;exitDy=0;entryX=0;entryY=0.5;entryDx=0;entryDy=0;" edge="1" parent="1" source="Phtv0TZWdsEABk7-FIin-67" target="Phtv0TZWdsEABk7-FIin-18">
          <mxGeometry relative="1" as="geometry">
            <mxPoint x="290" y="210" as="sourcePoint" />
            <mxPoint x="450" y="210" as="targetPoint" />
          </mxGeometry>
        </mxCell>
        <mxCell id="Phtv0TZWdsEABk7-FIin-74" value="No.likes" style="ellipse;whiteSpace=wrap;html=1;align=center;dashed=1;fontSize=12;" vertex="1" parent="1">
          <mxGeometry x="710" y="185" width="80" height="30" as="geometry" />
        </mxCell>
        <mxCell id="Phtv0TZWdsEABk7-FIin-75" value="" style="endArrow=none;html=1;rounded=0;fontSize=12;exitX=0;exitY=0.5;exitDx=0;exitDy=0;entryX=1;entryY=0.5;entryDx=0;entryDy=0;" edge="1" parent="1" source="Phtv0TZWdsEABk7-FIin-74" target="Phtv0TZWdsEABk7-FIin-18">
          <mxGeometry relative="1" as="geometry">
            <mxPoint x="600" y="350" as="sourcePoint" />
            <mxPoint x="760" y="350" as="targetPoint" />
          </mxGeometry>
        </mxCell>
        <mxCell id="Phtv0TZWdsEABk7-FIin-87" value="timestamp" style="ellipse;whiteSpace=wrap;html=1;align=center;" vertex="1" parent="1">
          <mxGeometry x="710" y="240" width="80" height="30" as="geometry" />
        </mxCell>
        <mxCell id="Phtv0TZWdsEABk7-FIin-88" value="" style="endArrow=none;html=1;rounded=0;fontSize=12;exitX=1;exitY=1;exitDx=0;exitDy=0;entryX=0;entryY=0.5;entryDx=0;entryDy=0;" edge="1" parent="1" source="Phtv0TZWdsEABk7-FIin-18" target="Phtv0TZWdsEABk7-FIin-87">
          <mxGeometry relative="1" as="geometry">
            <mxPoint x="330" y="270" as="sourcePoint" />
            <mxPoint x="490" y="270" as="targetPoint" />
          </mxGeometry>
        </mxCell>
        <mxCell id="Phtv0TZWdsEABk7-FIin-89" value="comment" style="rounded=1;arcSize=10;whiteSpace=wrap;html=1;align=center;fillColor=#f5f5f5;fontColor=#333333;strokeColor=#666666;" vertex="1" parent="1">
          <mxGeometry x="580" y="365" width="100" height="40" as="geometry" />
        </mxCell>
        <mxCell id="Phtv0TZWdsEABk7-FIin-90" value="&lt;u&gt;&lt;b&gt;ID&lt;/b&gt;&lt;/u&gt;" style="ellipse;whiteSpace=wrap;html=1;align=center;" vertex="1" parent="1">
          <mxGeometry x="480" y="330" width="80" height="30" as="geometry" />
        </mxCell>
        <mxCell id="Phtv0TZWdsEABk7-FIin-91" value="content" style="ellipse;whiteSpace=wrap;html=1;align=center;" vertex="1" parent="1">
          <mxGeometry x="650" y="320" width="80" height="30" as="geometry" />
        </mxCell>
        <mxCell id="Phtv0TZWdsEABk7-FIin-93" value="" style="endArrow=none;html=1;rounded=0;exitX=1;exitY=1;exitDx=0;exitDy=0;entryX=0;entryY=0;entryDx=0;entryDy=0;" edge="1" parent="1" source="Phtv0TZWdsEABk7-FIin-90" target="Phtv0TZWdsEABk7-FIin-89">
          <mxGeometry relative="1" as="geometry">
            <mxPoint x="650" y="405" as="sourcePoint" />
            <mxPoint x="810" y="405" as="targetPoint" />
          </mxGeometry>
        </mxCell>
        <mxCell id="Phtv0TZWdsEABk7-FIin-95" value="" style="endArrow=none;html=1;rounded=0;entryX=0.425;entryY=1.067;entryDx=0;entryDy=0;entryPerimeter=0;exitX=0.65;exitY=-0.025;exitDx=0;exitDy=0;exitPerimeter=0;" edge="1" parent="1" source="Phtv0TZWdsEABk7-FIin-89" target="Phtv0TZWdsEABk7-FIin-91">
          <mxGeometry relative="1" as="geometry">
            <mxPoint x="630" y="305" as="sourcePoint" />
            <mxPoint x="810" y="405" as="targetPoint" />
          </mxGeometry>
        </mxCell>
        <mxCell id="Phtv0TZWdsEABk7-FIin-96" value="No.likes" style="ellipse;whiteSpace=wrap;html=1;align=center;dashed=1;fontSize=12;" vertex="1" parent="1">
          <mxGeometry x="710" y="360" width="80" height="30" as="geometry" />
        </mxCell>
        <mxCell id="Phtv0TZWdsEABk7-FIin-97" value="" style="endArrow=none;html=1;rounded=0;fontSize=12;exitX=0;exitY=0.5;exitDx=0;exitDy=0;entryX=1;entryY=0.5;entryDx=0;entryDy=0;" edge="1" parent="1" source="Phtv0TZWdsEABk7-FIin-96" target="Phtv0TZWdsEABk7-FIin-89">
          <mxGeometry relative="1" as="geometry">
            <mxPoint x="600" y="525" as="sourcePoint" />
            <mxPoint x="760" y="525" as="targetPoint" />
          </mxGeometry>
        </mxCell>
        <mxCell id="Phtv0TZWdsEABk7-FIin-98" value="timestamp" style="ellipse;whiteSpace=wrap;html=1;align=center;" vertex="1" parent="1">
          <mxGeometry x="690" y="405" width="80" height="30" as="geometry" />
        </mxCell>
        <mxCell id="Phtv0TZWdsEABk7-FIin-99" value="" style="endArrow=none;html=1;rounded=0;fontSize=12;exitX=1;exitY=1;exitDx=0;exitDy=0;entryX=0;entryY=0.5;entryDx=0;entryDy=0;" edge="1" parent="1" source="Phtv0TZWdsEABk7-FIin-89" target="Phtv0TZWdsEABk7-FIin-98">
          <mxGeometry relative="1" as="geometry">
            <mxPoint x="330" y="445" as="sourcePoint" />
            <mxPoint x="490" y="445" as="targetPoint" />
          </mxGeometry>
        </mxCell>
        <mxCell id="Phtv0TZWdsEABk7-FIin-102" value="" style="shape=link;html=1;rounded=0;fontSize=12;entryX=0;entryY=0.5;entryDx=0;entryDy=0;exitX=1;exitY=0.5;exitDx=0;exitDy=0;" edge="1" parent="1" source="Phtv0TZWdsEABk7-FIin-63" target="Phtv0TZWdsEABk7-FIin-89">
          <mxGeometry relative="1" as="geometry">
            <mxPoint x="380" y="270" as="sourcePoint" />
            <mxPoint x="540" y="270" as="targetPoint" />
          </mxGeometry>
        </mxCell>
        <mxCell id="Phtv0TZWdsEABk7-FIin-104" value="&lt;div&gt;has&lt;/div&gt;" style="shape=rhombus;perimeter=rhombusPerimeter;whiteSpace=wrap;html=1;align=center;rotation=90;" vertex="1" parent="1">
          <mxGeometry x="585" y="280" width="90" height="40" as="geometry" />
        </mxCell>
        <mxCell id="Phtv0TZWdsEABk7-FIin-107" value="" style="endArrow=none;html=1;rounded=0;fontSize=12;exitX=0.5;exitY=1;exitDx=0;exitDy=0;entryX=0;entryY=0.5;entryDx=0;entryDy=0;" edge="1" parent="1" source="Phtv0TZWdsEABk7-FIin-18" target="Phtv0TZWdsEABk7-FIin-104">
          <mxGeometry relative="1" as="geometry">
            <mxPoint x="380" y="270" as="sourcePoint" />
            <mxPoint x="540" y="270" as="targetPoint" />
          </mxGeometry>
        </mxCell>
        <mxCell id="Phtv0TZWdsEABk7-FIin-108" value="1" style="resizable=0;html=1;align=right;verticalAlign=bottom;fontSize=12;" connectable="0" vertex="1" parent="Phtv0TZWdsEABk7-FIin-107">
          <mxGeometry x="1" relative="1" as="geometry" />
        </mxCell>
        <mxCell id="Phtv0TZWdsEABk7-FIin-109" value="" style="shape=link;html=1;rounded=0;fontSize=12;entryX=0.5;entryY=0;entryDx=0;entryDy=0;exitX=1;exitY=0.5;exitDx=0;exitDy=0;width=2;" edge="1" parent="1" source="Phtv0TZWdsEABk7-FIin-104" target="Phtv0TZWdsEABk7-FIin-89">
          <mxGeometry relative="1" as="geometry">
            <mxPoint x="380" y="270" as="sourcePoint" />
            <mxPoint x="540" y="270" as="targetPoint" />
          </mxGeometry>
        </mxCell>
        <mxCell id="Phtv0TZWdsEABk7-FIin-110" value="N" style="resizable=0;html=1;align=right;verticalAlign=bottom;fontSize=12;" connectable="0" vertex="1" parent="Phtv0TZWdsEABk7-FIin-109">
          <mxGeometry x="1" relative="1" as="geometry" />
        </mxCell>
        <mxCell id="Phtv0TZWdsEABk7-FIin-111" value="" style="shape=link;html=1;rounded=0;fontSize=12;entryX=0;entryY=0.5;entryDx=0;entryDy=0;exitX=1;exitY=0.5;exitDx=0;exitDy=0;" edge="1" parent="1" source="Phtv0TZWdsEABk7-FIin-29" target="Phtv0TZWdsEABk7-FIin-18">
          <mxGeometry relative="1" as="geometry">
            <mxPoint x="380" y="270" as="sourcePoint" />
            <mxPoint x="540" y="270" as="targetPoint" />
          </mxGeometry>
        </mxCell>
      </root>
    </mxGraphModel>
  </diagram>
</mxfile>
